<svg width="1700" height="511" viewBox="0 0 1700 511" fill="none" xmlns="http://www.w3.org/2000/svg">
<rect width="1700" height="511" rx="16" fill="white"/>
<path d="M497.924 377.738L435.064 348.523C430.898 346.572 429.105 341.615 431.004 337.449L475.512 241.736C477.463 237.57 482.42 235.777 486.586 237.676L549.445 266.891C553.611 268.842 555.404 273.799 553.506 277.965L508.998 373.678C507.047 377.844 502.09 379.637 497.924 377.738Z" fill="#7267CE"/>
<path d="M346.154 367.244L304.441 270.318C302.648 266.1 304.599 261.195 308.818 259.402L329.49 250.49L355.33 347.521C357.808 356.803 367.353 362.34 376.635 359.861L397.201 354.377L357.176 371.621C352.904 373.467 348 371.516 346.154 367.244Z" fill="#A292FE"/>
<path d="M364.031 345.201L336.926 243.16C335.766 238.73 338.402 234.143 342.832 232.982L360.762 228.184L358.6 244.268C357.334 253.76 363.979 262.566 373.523 263.832L415.606 269.527L398.467 327.271C396.727 333.23 398.256 339.348 402.106 343.725L374.262 351.107C369.779 352.268 365.244 349.631 364.031 345.201Z" fill="#D2C0FF"/>
<path d="M421.248 342.67L412.811 340.139C408.381 338.82 405.902 334.18 407.221 329.803L437.279 228.606C438.598 224.176 443.238 221.697 447.615 223.016L473.508 230.715H473.561H473.508C470.924 232.455 468.762 234.881 467.338 237.887L422.83 333.6C421.406 336.553 420.932 339.664 421.248 342.67Z" fill="#423F9F"/>
<path d="M418.242 260.721L374.736 254.867C370.201 254.234 366.984 250.068 367.617 245.48L381.697 140.855C382.33 136.32 386.496 133.103 391.031 133.736L459.744 143.017C464.279 143.65 467.496 147.816 466.863 152.404L458.215 216.793L450.146 214.367C440.918 211.625 431.267 216.898 428.525 226.074L418.242 260.721Z" fill="#001A72"/>
<path d="M415.5 244.109C417.979 242.474 419.455 240.207 419.93 237.201C420.404 234.248 419.719 231.611 417.873 229.344C416.027 227.023 413.444 225.599 410.121 225.019C406.799 224.439 403.846 224.967 401.262 226.601C398.731 228.183 397.201 230.451 396.727 233.404C396.252 236.252 396.938 238.889 398.836 241.367C400.735 243.74 403.319 245.217 406.694 245.744C410.069 246.271 412.969 245.744 415.5 244.109Z" fill="white"/>
<path d="M429.158 201.289C431.637 199.865 433.852 198.441 435.803 197.018C437.754 195.594 439.441 194.065 440.865 192.43C442.289 190.795 443.502 188.949 444.398 186.998C445.348 185.047 445.98 182.779 446.455 180.195C447.141 176.188 446.982 172.602 446.086 169.543C445.137 166.432 443.607 163.795 441.445 161.527C439.283 159.26 436.594 157.414 433.377 156.043C430.16 154.619 426.627 153.617 422.725 152.932C418.664 152.246 414.656 152.088 410.701 152.404C406.746 152.721 403.002 153.565 399.469 154.988L396.357 173.867C399.943 171.6 403.635 170.123 407.379 169.332C411.123 168.541 414.604 168.436 417.873 168.963C429.211 171.125 428.104 182.094 422.514 186.893C419.508 189.266 416.555 191.533 414.129 192.852C408.592 195.963 399.521 205.033 402.264 216.635L418.77 219.377C414.867 210.096 424.781 203.926 429.158 201.289Z" fill="white"/>
<path d="M668.112 201.364V309H645.355V201.364H668.112ZM685.679 309V295.493L739.392 220.126H685.574V201.364H767.983V214.871L714.218 290.237H768.088V309H685.679ZM819.804 309V201.364H862.27C870.399 201.364 877.337 202.818 883.083 205.726C888.864 208.599 893.261 212.681 896.275 217.972C899.323 223.227 900.847 229.411 900.847 236.524C900.847 243.672 899.305 249.821 896.222 254.972C893.139 260.087 888.671 264.011 882.82 266.744C877.004 269.477 869.961 270.844 861.692 270.844H833.259V252.554H858.013C862.358 252.554 865.967 251.958 868.84 250.767C871.713 249.576 873.85 247.789 875.252 245.406C876.688 243.024 877.407 240.063 877.407 236.524C877.407 232.95 876.688 229.937 875.252 227.484C873.85 225.032 871.695 223.175 868.787 221.913C865.914 220.617 862.288 219.969 857.908 219.969H842.561V309H819.804ZM877.932 260.017L904.684 309H879.561L853.388 260.017H877.932ZM939.529 310.524C934.378 310.524 929.788 309.631 925.759 307.844C921.73 306.022 918.541 303.341 916.194 299.803C913.881 296.229 912.725 291.779 912.725 286.453C912.725 281.968 913.548 278.202 915.195 275.153C916.842 272.105 919.084 269.652 921.922 267.795C924.76 265.938 927.984 264.537 931.593 263.591C935.237 262.645 939.056 261.979 943.05 261.594C947.745 261.103 951.529 260.648 954.402 260.227C957.275 259.772 959.36 259.106 960.657 258.23C961.953 257.354 962.601 256.058 962.601 254.341V254.026C962.601 250.697 961.55 248.122 959.448 246.3C957.381 244.478 954.437 243.567 950.618 243.567C946.589 243.567 943.383 244.46 941 246.247C938.618 247.999 937.041 250.206 936.27 252.869L915.563 251.188C916.614 246.282 918.681 242.043 921.765 238.469C924.848 234.86 928.825 232.092 933.695 230.165C938.6 228.203 944.276 227.222 950.723 227.222C955.208 227.222 959.5 227.747 963.6 228.798C967.734 229.849 971.396 231.479 974.584 233.686C977.808 235.893 980.348 238.732 982.205 242.2C984.062 245.634 984.99 249.751 984.99 254.551V309H963.757V297.805H963.127C961.83 300.328 960.096 302.553 957.924 304.48C955.751 306.372 953.141 307.861 950.093 308.947C947.044 309.999 943.523 310.524 939.529 310.524ZM945.941 295.072C949.234 295.072 952.142 294.424 954.665 293.128C957.188 291.796 959.167 290.009 960.604 287.767C962.041 285.525 962.759 282.984 962.759 280.146V271.58C962.058 272.035 961.095 272.455 959.868 272.841C958.677 273.191 957.328 273.524 955.821 273.839C954.315 274.12 952.808 274.383 951.301 274.628C949.795 274.838 948.428 275.031 947.202 275.206C944.574 275.591 942.279 276.205 940.317 277.045C938.355 277.886 936.831 279.025 935.745 280.462C934.659 281.863 934.115 283.615 934.115 285.717C934.115 288.766 935.219 291.096 937.426 292.707C939.669 294.284 942.507 295.072 945.941 295.072ZM1024.75 262.33V309H1002.36V228.273H1023.7V242.516H1024.64C1026.43 237.821 1029.43 234.107 1033.63 231.374C1037.84 228.606 1042.93 227.222 1048.93 227.222C1054.53 227.222 1059.42 228.448 1063.59 230.901C1067.76 233.353 1071 236.857 1073.31 241.412C1075.62 245.932 1076.78 251.328 1076.78 257.599V309H1054.39V261.594C1054.43 256.653 1053.17 252.799 1050.61 250.031C1048.05 247.228 1044.53 245.827 1040.04 245.827C1037.03 245.827 1034.37 246.475 1032.06 247.771C1029.78 249.068 1027.99 250.96 1026.69 253.447C1025.43 255.9 1024.78 258.861 1024.75 262.33ZM1124.17 310.314C1118.04 310.314 1112.49 308.737 1107.51 305.584C1102.57 302.395 1098.65 297.718 1095.74 291.551C1092.87 285.349 1091.43 277.746 1091.43 268.741C1091.43 259.491 1092.92 251.801 1095.9 245.669C1098.88 239.502 1102.84 234.895 1107.78 231.847C1112.75 228.763 1118.2 227.222 1124.12 227.222C1128.64 227.222 1132.41 227.992 1135.42 229.534C1138.47 231.041 1140.92 232.933 1142.78 235.21C1144.67 237.453 1146.11 239.66 1147.09 241.832H1147.77V201.364H1170.11V309H1148.03V296.071H1147.09C1146.04 298.313 1144.55 300.538 1142.62 302.746C1140.73 304.918 1138.26 306.723 1135.21 308.159C1132.2 309.596 1128.52 310.314 1124.17 310.314ZM1131.27 292.497C1134.88 292.497 1137.93 291.516 1140.41 289.554C1142.94 287.557 1144.86 284.771 1146.2 281.197C1147.56 277.624 1148.25 273.437 1148.25 268.636C1148.25 263.836 1147.58 259.667 1146.25 256.128C1144.92 252.589 1142.99 249.856 1140.47 247.929C1137.94 246.002 1134.88 245.038 1131.27 245.038C1127.59 245.038 1124.49 246.037 1121.97 248.034C1119.44 250.031 1117.53 252.799 1116.24 256.338C1114.94 259.877 1114.29 263.976 1114.29 268.636C1114.29 273.331 1114.94 277.483 1116.24 281.092C1117.57 284.666 1119.48 287.469 1121.97 289.501C1124.49 291.499 1127.59 292.497 1131.27 292.497ZM1224.99 310.577C1216.83 310.577 1209.77 308.842 1203.81 305.374C1197.89 301.87 1193.32 297 1190.09 290.763C1186.87 284.491 1185.26 277.221 1185.26 268.952C1185.26 260.613 1186.87 253.325 1190.09 247.088C1193.32 240.816 1197.89 235.946 1203.81 232.477C1209.77 228.973 1216.83 227.222 1224.99 227.222C1233.15 227.222 1240.2 228.973 1246.12 232.477C1252.08 235.946 1256.67 240.816 1259.89 247.088C1263.11 253.325 1264.72 260.613 1264.72 268.952C1264.72 277.221 1263.11 284.491 1259.89 290.763C1256.67 297 1252.08 301.87 1246.12 305.374C1240.2 308.842 1233.15 310.577 1224.99 310.577ZM1225.1 293.233C1228.81 293.233 1231.91 292.182 1234.4 290.08C1236.89 287.942 1238.76 285.034 1240.02 281.355C1241.32 277.676 1241.97 273.489 1241.97 268.794C1241.97 264.099 1241.32 259.912 1240.02 256.233C1238.76 252.554 1236.89 249.646 1234.4 247.509C1231.91 245.371 1228.81 244.303 1225.1 244.303C1221.35 244.303 1218.19 245.371 1215.64 247.509C1213.11 249.646 1211.2 252.554 1209.91 256.233C1208.65 259.912 1208.02 264.099 1208.02 268.794C1208.02 273.489 1208.65 277.676 1209.91 281.355C1211.2 285.034 1213.11 287.942 1215.64 290.08C1218.19 292.182 1221.35 293.233 1225.1 293.233ZM1279.28 309V228.273H1300.62V242.516H1301.57C1303.25 237.786 1306.05 234.054 1309.98 231.321C1313.9 228.588 1318.59 227.222 1324.06 227.222C1329.6 227.222 1334.31 228.606 1338.2 231.374C1342.09 234.107 1344.68 237.821 1345.98 242.516H1346.82C1348.46 237.891 1351.44 234.194 1355.75 231.426C1360.1 228.623 1365.23 227.222 1371.15 227.222C1378.68 227.222 1384.8 229.622 1389.49 234.422C1394.22 239.187 1396.59 245.949 1396.59 254.709V309H1374.25V259.124C1374.25 254.639 1373.06 251.275 1370.68 249.033C1368.3 246.79 1365.32 245.669 1361.74 245.669C1357.68 245.669 1354.51 246.965 1352.23 249.558C1349.95 252.116 1348.81 255.497 1348.81 259.702V309H1327.11V258.651C1327.11 254.691 1325.97 251.538 1323.69 249.19C1321.45 246.843 1318.49 245.669 1314.81 245.669C1312.32 245.669 1310.08 246.3 1308.08 247.561C1306.12 248.787 1304.56 250.522 1303.41 252.764C1302.25 254.972 1301.67 257.564 1301.67 260.543V309H1279.28Z" fill="#001A72"/>
</svg>
