<svg width="851" height="182" viewBox="0 0 851 182" fill="none" xmlns="http://www.w3.org/2000/svg">
<path d="M108.892 138V43.28H128.604V138H108.892ZM143.585 138V123.92L190.561 60.56H143.585V43.28H216.161V57.232L169.057 120.72H216.161V138H143.585ZM231.392 138V43.28H269.792C276.789 43.28 282.762 44.5173 287.712 46.992C292.746 49.4667 296.586 52.88 299.232 57.232C301.962 61.584 303.328 66.6187 303.328 72.336C303.328 78.5653 301.749 84.0267 298.592 88.72C295.434 93.328 290.954 96.6987 285.152 98.832L305.76 138H283.872L265.056 101.52H251.104V138H231.392ZM269.536 60.304H251.104V85.392H269.536C273.888 85.392 277.301 84.1973 279.776 81.808C282.25 79.4187 283.488 76.4747 283.488 72.976C283.488 69.392 282.25 66.4053 279.776 64.016C277.301 61.5413 273.888 60.304 269.536 60.304ZM343.79 68.88C348.142 68.88 351.726 69.6053 354.542 71.056C357.358 72.4213 359.491 73.9147 360.942 75.536C362.478 77.1573 363.416 78.2667 363.758 78.864H364.782V70.16H384.238V138H364.782V129.296H363.758C363.416 129.893 362.478 131.003 360.942 132.624C359.491 134.245 357.358 135.781 354.542 137.232C351.726 138.597 348.142 139.28 343.79 139.28C338.755 139.28 334.36 138.299 330.606 136.336C326.936 134.288 323.864 131.6 321.39 128.272C318.915 124.859 317.038 121.061 315.758 116.88C314.563 112.699 313.966 108.432 313.966 104.08C313.966 99.728 314.563 95.4613 315.758 91.28C317.038 87.0987 318.915 83.344 321.39 80.016C323.864 76.6027 326.936 73.9147 330.606 71.952C334.36 69.904 338.755 68.88 343.79 68.88ZM349.422 84.624C345.923 84.624 342.979 85.6053 340.59 87.568C338.286 89.4453 336.536 91.8773 335.342 94.864C334.232 97.8507 333.678 100.923 333.678 104.08C333.678 107.237 334.232 110.309 335.342 113.296C336.536 116.283 338.286 118.757 340.59 120.72C342.979 122.597 345.923 123.536 349.422 123.536C352.92 123.536 355.822 122.597 358.126 120.72C360.515 118.757 362.264 116.283 363.374 113.296C364.568 110.309 365.166 107.237 365.166 104.08C365.166 100.923 364.568 97.8507 363.374 94.864C362.264 91.8773 360.515 89.4453 358.126 87.568C355.822 85.6053 352.92 84.624 349.422 84.624ZM399.487 138V70.16H418.943V79.888H419.583C420.351 78.5227 421.46 76.9867 422.911 75.28C424.447 73.5733 426.452 72.08 428.927 70.8C431.487 69.52 434.729 68.88 438.655 68.88C443.945 68.88 448.255 70.1173 451.583 72.592C454.911 74.9813 457.343 78.096 458.879 81.936C460.415 85.6907 461.183 89.6587 461.183 93.84V138H441.727V97.168C441.727 93.9253 440.831 91.0667 439.039 88.592C437.332 86.1173 434.559 84.88 430.719 84.88C427.817 84.88 425.513 85.5627 423.807 86.928C422.1 88.2933 420.863 90.0427 420.095 92.176C419.327 94.3093 418.943 96.5707 418.943 98.96V138H399.487ZM504.165 139.28C499.13 139.28 494.735 138.299 490.981 136.336C487.311 134.288 484.239 131.6 481.765 128.272C479.29 124.859 477.413 121.061 476.133 116.88C474.938 112.699 474.341 108.432 474.341 104.08C474.341 99.728 474.938 95.4613 476.133 91.28C477.413 87.0987 479.29 83.344 481.765 80.016C484.239 76.6027 487.311 73.9147 490.981 71.952C494.735 69.904 499.13 68.88 504.165 68.88C508.517 68.88 512.101 69.6053 514.917 71.056C517.733 72.4213 519.866 73.9147 521.317 75.536C522.853 77.1573 523.791 78.2667 524.133 78.864H525.157V40.72H544.613V138H525.157V129.296H524.133C523.791 129.893 522.853 131.003 521.317 132.624C519.866 134.245 517.733 135.781 514.917 137.232C512.101 138.597 508.517 139.28 504.165 139.28ZM509.797 123.536C513.295 123.536 516.197 122.597 518.501 120.72C520.89 118.757 522.639 116.283 523.749 113.296C524.943 110.309 525.541 107.237 525.541 104.08C525.541 100.923 524.943 97.8507 523.749 94.864C522.639 91.8773 520.89 89.4453 518.501 87.568C516.197 85.6053 513.295 84.624 509.797 84.624C506.298 84.624 503.354 85.6053 500.965 87.568C498.661 89.4453 496.911 91.8773 495.717 94.864C494.607 97.8507 494.053 100.923 494.053 104.08C494.053 107.237 494.607 110.309 495.717 113.296C496.911 116.283 498.661 118.757 500.965 120.72C503.354 122.597 506.298 123.536 509.797 123.536ZM594.675 139.28C587.08 139.28 580.637 137.659 575.347 134.416C570.056 131.088 566.003 126.779 563.187 121.488C560.456 116.112 559.091 110.309 559.091 104.08C559.091 97.8507 560.456 92.0907 563.187 86.8C566.003 81.424 570.056 77.1147 575.347 73.872C580.637 70.544 587.08 68.88 594.675 68.88C602.269 68.88 608.712 70.544 614.003 73.872C619.293 77.1147 623.304 81.424 626.035 86.8C628.851 92.0907 630.259 97.8507 630.259 104.08C630.259 110.309 628.851 116.112 626.035 121.488C623.304 126.779 619.293 131.088 614.003 134.416C608.712 137.659 602.269 139.28 594.675 139.28ZM594.675 123.408C598.088 123.408 600.947 122.512 603.251 120.72C605.64 118.928 607.475 116.581 608.755 113.68C610.035 110.693 610.675 107.493 610.675 104.08C610.675 100.581 610.035 97.3813 608.755 94.48C607.475 91.5787 605.64 89.232 603.251 87.44C600.947 85.648 598.088 84.752 594.675 84.752C591.261 84.752 588.36 85.648 585.971 87.44C583.581 89.232 581.747 91.5787 580.467 94.48C579.272 97.3813 578.675 100.581 578.675 104.08C578.675 107.493 579.272 110.693 580.467 113.68C581.747 116.581 583.581 118.928 585.971 120.72C588.36 122.512 591.261 123.408 594.675 123.408ZM643.487 138V70.16H662.943V79.376H663.583C665.033 76.9013 667.209 74.5547 670.111 72.336C673.012 70.032 676.98 68.88 682.015 68.88C687.135 68.88 691.231 70.0747 694.303 72.464C697.46 74.8533 699.764 77.7973 701.215 81.296H701.471C702.58 79.3333 704.031 77.4133 705.823 75.536C707.7 73.5733 710.004 71.9947 712.735 70.8C715.551 69.52 718.836 68.88 722.591 68.88C727.284 68.88 731.167 69.9467 734.239 72.08C737.311 74.2133 739.572 77.0293 741.023 80.528C742.559 83.9413 743.327 87.6107 743.327 91.536V138H723.871V96.4C723.871 93.072 723.017 90.3413 721.311 88.208C719.689 85.9893 717.215 84.88 713.887 84.88C711.327 84.88 709.236 85.52 707.615 86.8C706.079 88.08 704.927 89.744 704.159 91.792C703.476 93.7547 703.135 95.8027 703.135 97.936V138H683.679V96.4C683.679 93.072 682.825 90.3413 681.119 88.208C679.497 85.9893 677.023 84.88 673.694 84.88C671.134 84.88 669.044 85.52 667.423 86.8C665.887 88.08 664.735 89.744 663.967 91.792C663.284 93.7547 662.943 95.8027 662.943 97.936V138H643.487Z" fill="url(#paint0_linear_601_3)"/>
<defs>
<linearGradient id="paint0_linear_601_3" x1="680.892" y1="60.8605" x2="250.231" y2="60.8605" gradientUnits="userSpaceOnUse">
<stop stop-color="#001A72"/>
<stop offset="1" stop-color="#808CFF" stop-opacity="0.61"/>
</linearGradient>
</defs>
</svg>
